<?xml version="1.0" standalone="no"?><!DOCTYPE svg PUBLIC "-//W3C//DTD SVG 1.1//EN" "http://www.w3.org/Graphics/SVG/1.1/DTD/svg11.dtd"><svg t="1704263119630" class="icon" viewBox="0 0 1024 1024" version="1.1" xmlns="http://www.w3.org/2000/svg" p-id="3436" xmlns:xlink="http://www.w3.org/1999/xlink" width="16" height="16"><path d="M785.486769 821.326769c-70.025846-56.713846-131.150769-144.620308-131.150769-144.620307l-10.397538 8.979692c19.377231 26.781538 79.005538 102.793846 126.660923 141.548308 49.230769 38.754462 96.886154 73.097846 111.852307 84.992 14.887385 13.390769 8.900923 20.873846 4.411077 29.774769-7.404308 17.880615 14.966154 26.781538 22.370462 5.986461a55.611077 55.611077 0 0 0 2.993231-17.880615c-2.993231-28.356923-56.713846-52.145231-126.739693-108.780308z" fill="#3F8CFE" p-id="3437"></path><path d="M645.435077 666.230154c58.131692-13.390769 92.396308 8.979692 125.243077 14.966154-2.993231-8.979692-16.462769-22.370462-8.979692-25.363693 29.774769-10.397538 62.621538-4.489846 93.892923-7.483077-5.986462-5.907692-23.867077-13.390769-17.880616-19.37723 11.894154-11.894154 32.768-8.900923 49.152-13.39077-2.914462-2.993231-10.397538-8.900923-7.404307-10.397538 22.370462-10.476308 47.655385-11.972923 71.522461-17.880615-22.370462-4.489846-44.740923-4.489846-65.536-13.39077-2.993231-1.575385 2.914462-7.483077 4.411077-10.476307-34.264615-4.489846-67.032615 1.496615-101.297231-14.966154 1.496615-28.278154 56.635077-58.052923 83.495385-86.409846-4.489846 0-14.966154 2.993231-13.469539-1.496616 14.966154-25.363692 35.761231-47.655385 53.641847-71.522461-31.271385 2.993231-61.124923 4.489846-92.396308 7.404307 11.894154-34.264615 25.363692-67.032615 37.257846-101.29723-10.397538 0-31.271385 11.894154-32.768 1.496615-5.986462-23.867077 10.397538-47.734154 16.384-71.601231-5.986462 0-16.384 7.483077-17.880615 1.575385-2.993231-13.469538 4.489846-28.356923 7.404307-41.747692-4.411077 0-10.397538 1.417846-11.894154-2.993231-2.993231-22.370462 1.496615-46.237538 1.496616-70.104616-16.384 22.370462-29.774769 47.734154-49.152 67.111385-2.993231 2.993231-7.483077-4.489846-10.476308-7.483077-8.900923 14.966154-11.894154 35.761231-26.781538 46.237539-5.986462 4.411077-10.476308-8.979692-14.966154-14.966154-13.390769 31.350154-20.873846 64.118154-40.172308 92.475077-4.489846 5.907692-11.972923-11.972923-13.469538-14.966154-2.993231-2.914462-4.489846 98.461538-40.172308 132.726154-50.727385-65.614769-13.469538-107.362462-19.456-162.500923-2.993231 4.489846-8.900923 16.384-10.397538 10.397538-7.483077-20.795077-4.489846-43.165538-7.483077-64.039385-2.993231 4.489846-8.979692 17.880615-10.397539 13.39077-5.986462-14.966154-2.993231-32.768-4.489846-49.152-5.986462 14.887385-10.476308 32.768-19.377231 46.158769-1.575385 2.993231-5.986462-2.993231-8.979692-5.907692-1.496615 16.384-16.384 49.152-34.264615 49.152-13.390769 0-32.768-49.152-49.152-73.019077-1.575385 1.496615-4.489846 7.404308-5.986462 5.907692-8.979692-10.397538-13.390769-25.284923-20.873846-37.257846-7.483077 11.972923-16.384 35.84-23.867077 34.343384-14.887385-1.575385-38.754462-23.867077-56.635077-35.84 0 2.993231 1.496615 11.972923-1.496615 11.972924-11.894154-4.489846-20.873846-14.966154-31.271385-22.370462 0 2.993231 2.993231 11.894154 0 10.397538-19.377231-8.900923-35.761231-23.788308-52.145231-35.76123 4.411077 20.873846 11.815385 41.747692 13.390769 62.621538 0 2.993231-5.986462-2.993231-8.979692-4.489846 2.993231 11.972923 8.979692 25.363692 8.979692 37.257846 0 4.489846-7.483077-1.496615-10.476307-2.914461 4.489846 22.291692 14.966154 52.145231 11.972923 67.032615-1.575385 7.483077-26.781538 5.986462-41.747692 8.979692 8.900923 11.894154 20.873846 20.873846 26.781538 34.264616 1.575385 2.993231-4.411077 2.993231-7.404308 4.489846 16.384 23.788308 55.138462 59.628308 50.648616 73.019077-5.907692 16.384-43.165538 17.880615-58.131693 13.390769 0 2.993231 4.489846 8.979692 1.575385 10.476308-16.462769 4.411077-32.846769 1.496615-49.230769 1.496615 14.887385 7.404308 32.768 11.815385 43.244307 22.291692 4.411077 4.489846-10.476308 2.993231-16.462769 4.489847 19.377231 10.476308 40.251077 16.384 56.713846 31.350153 4.411077 2.914462-8.979692 4.411077-13.390769 5.907693 47.655385 26.781538 99.800615 7.483077 143.044923 79.005538-44.740923 19.377231-138.633846-14.966154-138.633846-11.894154 1.496615 2.993231 14.966154 16.384 8.900923 17.880616-32.768 7.404308-67.032615 1.496615-99.800615 2.99323 2.914462 5.907692 13.390769 14.887385 7.404307 19.377231-14.887385 8.900923-35.761231 4.411077-52.14523 7.404308 1.496615 4.489846 5.986462 10.476308 2.99323 11.972923-25.363692 10.397538-53.641846 13.390769-81.998769 20.873846 22.370462 8.900923 44.740923 13.390769 65.614769 25.284923 2.914462 1.575385-1.575385 7.483077-2.99323 11.972923 13.390769 2.914462 29.774769 0 41.747692 8.900923 4.411077 2.993231-5.986462 10.476308-7.483077 16.384 23.867077 4.489846 52.145231-2.993231 73.019077 11.972923 8.979692 5.907692-8.900923 20.873846-13.390769 31.271385 35.761231 1.496615 71.522462 1.496615 108.780307 2.993231-13.390769 28.356923-26.781538 55.138462-41.747692 83.495384 28.356923-7.483077 56.713846-19.377231 86.488616-23.867076 4.489846 0-2.993231 8.900923-2.993231 11.894153 37.257846-14.887385 84.992-55.138462 111.852307-44.662153 2.914462 38.754462-16.462769 65.536-25.363692 99.800615 4.411077 0 11.894154-4.411077 11.894154-1.417846 0 22.291692-8.979692 43.165538-13.390769 65.536 14.887385-19.377231 25.284923-41.747692 43.165538-59.628308 2.993231-2.993231 4.489846 7.483077 7.483077 10.476308 10.476308-13.390769 14.966154-34.343385 29.853539-40.251077 7.404308-2.993231 7.404308 16.384 10.397538 23.867077 13.390769-28.356923 20.873846-61.124923 41.747692-83.495385 5.986462-5.986462 13.390769 11.894154 19.377231 17.880616 7.404308-32.768-1.575385-73.019077 34.264616-122.249847-1.496615-1.496615-2.993231-4.489846-4.489847-5.986461l-128.157538 147.613538 117.76-153.6-342.803692-17.801846 336.81723 5.907692L488.920615 457.649231 330.909538 442.683077h149.110154l-125.243077-207.163077 135.640616 198.262154 56.713846-122.249846-44.819692 137.058461L638.030769 638.030769l141.627077-368.167384-138.633846 377.147077 213.149538-56.713847-213.149538 68.529231s1.575385 3.072 4.489846 7.483077z" fill="#3F8CFE" p-id="3438"></path></svg>