<?xml version="1.0" standalone="no"?><!DOCTYPE svg PUBLIC "-//W3C//DTD SVG 1.1//EN" "http://www.w3.org/Graphics/SVG/1.1/DTD/svg11.dtd"><svg t="1704274779938" class="icon" viewBox="0 0 1024 1024" version="1.1" xmlns="http://www.w3.org/2000/svg" p-id="9550" width="16" height="16" xmlns:xlink="http://www.w3.org/1999/xlink"><path d="M381.1 997c-9.5 0-18.9-2.5-27.1-7.2l-163.9-94c-12.7-7.3-21.7-19-25.5-33.1s-1.9-28.8 5.3-41.5l42-73.3c-17.3-23.2-31.8-48-43.2-74.3l-84.7 0.3c-30 0-54.5-24.4-54.6-54.5l-0.6-189c-0.1-30.1 24.3-54.7 54.5-54.8l84.6-0.2c6-14.3 12.2-26.8 18.9-38.6 6.8-11.8 14.4-23.4 23.8-35.8l-42.5-73.1c-15.1-26-6.3-59.5 19.8-74.7l163.4-95c8.3-4.8 17.8-7.4 27.4-7.4 19.4 0 37.5 10.4 47.3 27.2l42.4 73c28.4-3.4 57.3-3.4 85.9-0.2l42-73.3C606 60.6 624.2 50 643.7 50c9.5 0 18.9 2.5 27.1 7.2l163.9 94c12.7 7.3 21.7 19 25.5 33.1s1.9 28.8-5.3 41.5l-42 73.3c17.3 23.2 31.8 48 43.2 74.3l84.6-0.2c30 0 54.5 24.4 54.6 54.5l0.6 189c0 14.6-5.6 28.3-15.9 38.7-10.3 10.3-24 16.1-38.6 16.1l-84.6 0.2c-6 14.3-12.1 26.8-18.9 38.6-6.8 11.8-14.4 23.4-23.8 35.8l42.5 73.1c15.1 26 6.3 59.5-19.8 74.7l-163.4 95c-8.3 4.8-17.8 7.4-27.4 7.4-19.4 0-37.5-10.4-47.3-27.2l-42.4-73c-28.4 3.4-57.3 3.4-85.9 0.2l-42 73.3c-9.6 16.9-27.8 27.4-47.3 27.4zM181.9 633.6c8.2 0 15.6 5 18.6 12.7 12.3 31.4 29.4 60.8 50.9 87.4 5.2 6.4 5.9 15.3 1.8 22.5l-48.7 84.9c-1.9 3.4-2.4 7.3-1.4 11.1s3.5 6.9 6.8 8.9l163.9 94c2.2 1.3 4.7 1.9 7.2 1.9 5.2 0 10.1-2.8 12.7-7.4l48.7-84.9c4.1-7.1 12.2-11.1 20.3-9.8 16.6 2.5 33.4 3.7 50 3.7 17.1 0 34.4-1.3 51.2-4 8.1-1.3 16.2 2.6 20.4 9.7l49.1 84.5c2.6 4.5 7.5 7.3 12.7 7.3 2.6 0 5-0.7 7.3-2l163.4-95c7-4.1 9.3-13 5.3-20l-49.3-84.7c-4.1-7.1-3.5-16 1.6-22.5 12-15.1 21.1-28.4 28.8-41.7 7.7-13.4 14.5-28 21.5-45.9 3-7.7 10.4-12.7 18.6-12.8l98-0.3c3.9 0 7.6-1.5 10.3-4.3 2.8-2.8 4.3-6.4 4.3-10.4l-0.6-189c0-8-6.6-14.6-14.6-14.6l-97.8 0.3h-0.1c-8.2 0-15.6-5-18.6-12.7-12.3-31.4-29.4-60.8-50.9-87.4-5.2-6.4-5.9-15.3-1.8-22.5l48.7-84.9c1.9-3.4 2.5-7.3 1.4-11.1s-3.5-6.9-6.8-8.9l-163.9-94c-2.2-1.3-4.7-1.9-7.2-1.9-5.2 0-10.1 2.8-12.7 7.4l-48.7 84.9c-4.1 7.1-12.2 11-20.3 9.8-16.6-2.5-33.4-3.7-50-3.7-17.1 0-34.4 1.3-51.2 4-8.1 1.3-16.2-2.6-20.4-9.7l-49.1-84.6c-2.6-4.5-7.5-7.3-12.7-7.3-2.6 0-5 0.7-7.3 2l-163.4 95c-7 4.1-9.3 13-5.3 20l49.3 84.7c4.1 7.1 3.5 16-1.6 22.5-12 15.1-21.1 28.3-28.8 41.7-7.7 13.4-14.5 28-21.5 45.9-3 7.7-10.4 12.7-18.6 12.8l-98 0.3c-8.1 0-14.6 6.6-14.6 14.7l0.6 189c0 8 6.6 14.6 14.6 14.6l97.9-0.2z" fill="#e6e6e6" p-id="9551"></path><path d="M512.2 698.8c-30.4 0-60.5-8-87-23.2-83.8-48.1-112.9-155.3-64.8-239.1 31.1-54.3 89.4-88.1 152.1-88.1 30.4 0 60.5 8 87 23.2 40.6 23.3 69.7 61 81.9 106.1 12.2 45.2 6.2 92.4-17.1 133-31.1 54.3-89.4 88.1-152.1 88.1z m0.3-310.4c-48.4 0-93.4 26-117.4 68-37.1 64.7-14.6 147.4 50 184.5 20.5 11.7 43.7 17.9 67.1 17.9 48.4 0 93.4-26 117.4-68 18-31.3 22.7-67.8 13.2-102.6-9.4-34.8-31.9-63.9-63.2-81.9-20.4-11.7-43.6-17.9-67.1-17.9z" fill="#e6e6e6" p-id="9552"></path></svg>