<?xml version="1.0" standalone="no"?><!DOCTYPE svg PUBLIC "-//W3C//DTD SVG 1.1//EN" "http://www.w3.org/Graphics/SVG/1.1/DTD/svg11.dtd"><svg t="1703928328523" class="icon" viewBox="0 0 1024 1024" version="1.1" xmlns="http://www.w3.org/2000/svg" p-id="1446" width="16" height="16" xmlns:xlink="http://www.w3.org/1999/xlink"><path d="M192.037 287.953h640.124c17.673 0 32-14.327 32-32s-14.327-32-32-32H192.037c-17.673 0-32 14.327-32 32s14.327 32 32 32zM192.028 543.17h393.608c17.673 0 32-14.327 32-32s-14.327-32-32-32H192.028c-17.673 0-32 14.327-32 32s14.327 32 32 32zM832.161 735.802H192.037c-17.673 0-32 14.327-32 32s14.327 32 32 32h640.124c17.673 0 32-14.327 32-32s-14.327-32-32-32zM705.162 671.594l160-160-160-160z" fill="#1296db" p-id="1447"></path></svg>