<?xml version="1.0" standalone="no"?><!DOCTYPE svg PUBLIC "-//W3C//DTD SVG 1.1//EN" "http://www.w3.org/Graphics/SVG/1.1/DTD/svg11.dtd"><svg t="1704344347897" class="icon" viewBox="0 0 1064 1024" version="1.1" xmlns="http://www.w3.org/2000/svg" p-id="6703" xmlns:xlink="http://www.w3.org/1999/xlink" width="16.625" height="16"><path d="M261.5296 26.2144c4.38272 0.12288 35.06176 1.47456 35.06176 20.02944v595.27168l-0.12288 0.08192v-0.04096 173.056l-34.24256-0.16384c0-103.6288-63.52896-116.1216-90.89024-116.69504h-4.79232a68.11648 68.11648 0 0 0-7.3728 0.57344l50.3808-20.8896-50.54464 20.8896H156.59008c-15.5648 0.16384-99.36896 6.144-99.36896 115.34336 0 0-13.59872 116.20352 101.86752 117.06368 0 0 103.2192 9.58464 103.2192-116.16256l34.2016 0.16384v153.72288s-2.08896 18.432-34.93888 19.12832H56.64768s-33.71008 8.15104-33.71008-17.57184V45.42464S18.0224 26.25536 56.36096 26.25536h205.2096z m310.272 0c4.38272 0.12288 35.06176 1.47456 35.06176 20.02944v595.27168l-0.12288 0.08192v173.01504h-1.59744v0.08192h1.6384v153.76384s-2.048 18.432-34.89792 19.12832H366.96064s-26.86976 6.43072-32.64512-10.52672a13.9264 13.9264 0 0 1-2.8672-8.76544l-0.98304-326.8608h0.08192V46.61248s0.8192-1.59744 2.4576-3.8912c0.28672-5.16096 4.17792-15.85152 31.25248-16.42496L364.9536 26.2144h206.848z m309.16608 0c4.25984 0.12288 34.03776 1.55648 34.4064 21.58592v484.9664a192.63488 192.63488 0 0 0-34.89792-4.096V181.12512h-205.2096V641.4336h16.5888c-6.30784 11.14112-11.8784 22.69184-16.54784 34.6112a251.4944 251.4944 0 0 0-17.2032 92.9792c0 33.5872 5.69344 64.88064 17.2032 93.96224 11.4688 29.20448 26.99264 54.6816 46.65344 76.63616 16.71168 18.75968 36.57728 34.4064 58.69568 46.2848l-106.00448 0.04096c-4.096 0.2048-32.93184 0.98304-32.93184-17.65376l-0.98304-326.8608h0.08192V46.61248s9.99424-20.35712 34.44736-20.35712h205.70112z m-6.144 543.29344c24.45312 0 47.43168 5.20192 69.14048 15.7696 21.79072 10.56768 40.71424 25.02656 57.01632 43.13088 16.22016 18.06336 29.20448 39.36256 38.58432 63.488 9.54368 24.20736 14.29504 49.93024 14.29504 77.12768a210.1248 210.1248 0 0 1-14.29504 77.94688 208.65024 208.65024 0 0 1-38.58432 63.56992c-16.30208 18.10432-35.2256 32.27648-57.01632 42.5984-21.7088 10.32192-44.6464 15.40096-69.09952 15.40096-24.9856 0-48.3328-5.07904-70.0416-15.40096a178.9952 178.9952 0 0 1-56.89344-42.5984 208.81408 208.81408 0 0 1-38.7072-63.56992 210.1248 210.1248 0 0 1-14.336-77.94688c0-27.19744 4.79232-52.92032 14.336-77.12768a207.91296 207.91296 0 0 1 38.7072-63.488c15.9744-17.94048 35.30752-32.60416 56.89344-43.13088 21.7088-10.56768 45.056-15.7696 70.0416-15.7696z m-304.90624 235.52c-5.98016-113.0496-100.88448-105.2672-100.88448-105.2672a111.69792 111.69792 0 0 0-56.40192 14.58176c-23.38816 14.90944-45.13792 43.74528-45.13792 99.36896 0 0-3.4816 30.14656 8.31488 59.84256 12.288 28.42624 38.17472 56.23808 92.52864 56.23808h0.94208c9.87136-0.24576 94.16704-5.65248 100.84352-114.76992h0.08192l-0.28672-9.99424z m406.65088-102.31808c-5.48864-4.096-10.60864-4.79232-15.48288-1.72032-4.9152 2.94912-9.74848 7.20896-14.62272 12.6976-12.53376 13.9264-24.7808 27.4432-37.02784 40.83712-12.16512 13.27104-23.7568 26.0096-34.57024 38.0928a23.18336 23.18336 0 0 1-12.61568 7.70048c-4.62848 0.8192-8.35584-0.8192-11.0592-5.07904l-7.65952-8.97024a829.44 829.44 0 0 1-11.0592-13.63968l-10.97728-14.09024c-3.56352-4.5056-6.06208-7.7824-7.74144-9.46176a23.06048 23.06048 0 0 0-10.93632-5.89824c-4.096-0.94208-8.35584 0.65536-12.61568 4.9152l-4.096 4.17792a49.52064 49.52064 0 0 0-6.5536 7.24992 71.18848 71.18848 0 0 1-6.51264 7.20896l-4.05504 4.01408c-8.11008 9.8304-7.00416 20.8896 3.35872 33.5872 3.19488 4.3008 7.49568 9.54368 12.94336 15.9744 5.7344 6.71744 11.4688 13.5168 17.03936 20.35712 6.10304 7.20896 12.04224 14.336 18.0224 21.2992 5.9392 6.9632 11.0592 12.57472 15.48288 16.71168 4.25984 4.95616 10.24 7.12704 17.85856 6.84032 7.61856-0.24576 13.35296-2.78528 16.9984-7.61856 8.97024-9.33888 17.65376-18.88256 26.09152-28.672 9.78944-11.14112 20.02944-22.528 30.47424-33.9968 10.48576-11.22304 20.80768-22.56896 30.96576-33.9968 8.97024-9.99424 18.0224-19.82464 27.27936-29.4912 3.23584-4.17792 6.22592-9.33888 8.92928-15.40096a14.04928 14.04928 0 0 0-2.37568-16.34304l-7.74144-9.09312a53.248 53.248 0 0 0-7.7824-8.192zM468.992 755.05664c1.6384 0.12288 3.23584 0.32768 4.83328 0.57344 20.56192 2.62144 31.9488 13.88544 38.25664 25.8048 8.6016 15.5648 8.192 32.1536 8.192 32.1536a109.7728 109.7728 0 0 1-0.57344 9.0112c-0.69632 9.4208-2.8672 17.08032-5.9392 23.30624-13.88544 30.02368-44.76928 26.25536-44.76928 26.25536a50.3808 50.3808 0 0 1-16.1792-2.62144c-36.57728-11.38688-36.61824-55.95136-36.61824-55.95136 0-24.24832 8.6016-38.5024 18.8416-46.81728a45.01504 45.01504 0 0 1 33.21856-11.71456h0.73728z m-360.61184 57.83552c1.51552-64.1024 50.66752-57.67168 50.66752-57.67168 52.0192 3.19488 50.5856 58.40896 50.62656 58.40896 1.26976 54.96832-42.31168 58.368-49.5616 58.5728h-1.06496c-49.23392 0-50.66752-59.31008-50.66752-59.31008z m153.92768-632.832H58.61376l-1.39264 461.45536h205.12768V180.06016z m307.85536 1.10592H368.88576L367.49312 641.4336h202.71104V181.16608z m-33.1776 189.48096v38.42048H401.6128v-38.42048h135.41376z m-310.31296 0v38.42048H91.3408V370.688h135.3728z m619.60192 0v38.42048H712.2944v-38.42048h134.02112zM226.7136 296.96v38.5024H91.3408v-38.5024h135.3728z m310.31296 0v38.5024H401.6128v-38.5024h135.41376z m309.248 0v38.5024H712.2944v-38.5024h134.02112zM226.75456 216.8832v41.69728H91.3408V216.84224h135.3728z m619.60192 0v41.69728H712.2944V216.84224h134.02112z m-309.28896 0v41.69728H401.6128V216.84224h135.41376z" fill="currentColor" p-id="6704"></path></svg>