<?xml version="1.0" standalone="no"?><!DOCTYPE svg PUBLIC "-//W3C//DTD SVG 1.1//EN" "http://www.w3.org/Graphics/SVG/1.1/DTD/svg11.dtd"><svg t="1704851727551" class="icon" viewBox="0 0 1024 1024" version="1.1" xmlns="http://www.w3.org/2000/svg" p-id="8514" width="16" height="16" xmlns:xlink="http://www.w3.org/1999/xlink"><path d="M768 192a189.76 189.76 0 0 1 168 98.56c17.28 30.976 25.472 63.488 24.512 97.472a194.624 194.624 0 0 1-28.992 96.512 185.216 185.216 0 0 1-72.96 69.504 192 192 0 0 1-98.56 22.016c-16 57.344-46.464 103.488-91.456 138.496-44.992 35.008-97.152 52.8-156.48 53.504H320c-72.704-1.984-133.056-27.008-181.056-75.008S66.048 584.704 64 512.064v-352c0-9.344 3.008-17.024 9.024-23.04a31.168 31.168 0 0 1 23.04-8.96h640c9.344 0 16.96 3.008 22.976 8.96 6.016 6.016 8.96 13.696 8.96 23.04v32V192z m0 64v256c36.032-0.64 66.176-13.184 90.496-37.504 24.32-24.32 36.8-54.528 37.504-90.496-0.64-36.032-13.184-66.176-37.504-90.496-24.32-24.32-54.528-36.8-90.496-37.504zM96 832h640c9.344 0 17.024 3.008 23.04 8.96 5.952 6.016 8.96 13.696 8.96 23.04a31.168 31.168 0 0 1-8.96 23.04 31.168 31.168 0 0 1-23.04 8.96h-640a31.168 31.168 0 0 1-23.04-8.96 31.168 31.168 0 0 1-8.96-23.04c0-9.344 3.008-17.024 8.96-23.04A31.168 31.168 0 0 1 96 832zM128 192v320c1.344 54.656 20.032 100.032 56 136S265.28 702.656 320 704h192c54.656-1.344 100.032-20.032 136-56S702.656 566.72 704 512V192H128z" fill="#000000" p-id="8515"></path></svg>