<?xml version="1.0" standalone="no"?><!DOCTYPE svg PUBLIC "-//W3C//DTD SVG 1.1//EN" "http://www.w3.org/Graphics/SVG/1.1/DTD/svg11.dtd"><svg t="1704865398967" class="icon" viewBox="0 0 1024 1024" version="1.1" xmlns="http://www.w3.org/2000/svg" p-id="24110" width="16" height="16" xmlns:xlink="http://www.w3.org/1999/xlink"><path d="M448 456V96a30.72 30.72 0 0 1 9.536-22.464A30.72 30.72 0 0 1 480 64h192c9.344 0 17.024 3.008 23.04 8.96 5.952 6.016 8.96 13.696 8.96 23.04a31.168 31.168 0 0 1-8.96 23.04 31.168 31.168 0 0 1-23.04 8.96H512v128h160c9.344 0 17.024 3.008 23.04 8.96 5.952 6.016 8.96 13.696 8.96 23.04a31.168 31.168 0 0 1-8.96 23.04 31.168 31.168 0 0 1-23.04 8.96H512v128c69.312 1.344 127.68 24.512 175.04 69.504 47.36 44.992 73.984 101.824 80 170.496 2.624 69.312-16.832 129.152-58.56 179.52-41.6 50.304-96.448 80.448-164.48 90.496-69.312 7.296-130.368-8.192-183.04-46.528-52.608-38.336-86.272-91.52-100.928-159.488-11.328-68.032 0.448-129.664 35.456-184.96C330.496 511.68 381.312 474.688 448 456zM512 896c54.656-1.344 100.032-20.032 136-56s54.656-81.28 56-136c-1.344-54.656-20.032-100.032-56-136S566.72 513.344 512 512c-54.656 1.344-100.032 20.032-136 56S321.344 649.28 320 704c1.344 54.656 20.032 100.032 56 136S457.28 894.656 512 896z" fill="#000000" p-id="24111"></path></svg>