<?xml version="1.0" standalone="no"?><!DOCTYPE svg PUBLIC "-//W3C//DTD SVG 1.1//EN" "http://www.w3.org/Graphics/SVG/1.1/DTD/svg11.dtd"><svg t="1704865135274" class="icon" viewBox="0 0 1024 1024" version="1.1" xmlns="http://www.w3.org/2000/svg" p-id="22054" width="16" height="16" xmlns:xlink="http://www.w3.org/1999/xlink"><path d="M805.236364 107.054545H244.363636c-53.527273 0-97.745455 44.218182-97.745454 97.745455v646.981818c0 53.527273 44.218182 97.745455 97.745454 97.745455h560.872728c53.527273 0 97.745455-44.218182 97.745454-97.745455V202.472727c-2.327273-53.527273-44.218182-95.418182-97.745454-95.418182z m25.6 742.4c0 13.963636-11.636364 27.927273-27.927273 27.927273h-558.545455c-13.963636 0-27.927273-11.636364-27.927272-27.927273V202.472727c0-13.963636 11.636364-27.927273 27.927272-27.927272h560.872728c13.963636 0 27.927273 11.636364 27.927272 27.927272v646.981818z" p-id="22055"></path><path d="M318.836364 318.836364h414.254545v69.818181H318.836364zM318.836364 488.727273h414.254545v69.818182H318.836364zM325.818182 658.618182h237.381818v69.818182H325.818182z" p-id="22056"></path></svg>