<?xml version="1.0" standalone="no"?><!DOCTYPE svg PUBLIC "-//W3C//DTD SVG 1.1//EN" "http://www.w3.org/Graphics/SVG/1.1/DTD/svg11.dtd"><svg t="1704341336008" class="icon" viewBox="0 0 1024 1024" version="1.1" xmlns="http://www.w3.org/2000/svg" p-id="10564" width="16" height="16" xmlns:xlink="http://www.w3.org/1999/xlink"><path d="M191.011064 608.215055h224.631568a60.918771 60.918771 0 0 1 64.297459 64.143883v287.188491a71.669142 71.669142 0 0 1-76.788367 64.143882h-276.438119a60.048503 60.048503 0 0 1-63.17123-64.143882v-287.188491a60.918771 60.918771 0 0 1 64.297459-64.143883z m480.899943 0h287.802798a66.549918 66.549918 0 0 1 64.297459 70.952451v275.97739A68.392838 68.392838 0 0 1 955.157696 1023.844887h-276.43812a66.549918 66.549918 0 0 1-71.054835-64.143882v-287.342067a65.730842 65.730842 0 0 1 71.054835-63.017653z m0-542.944943h287.802798a58.359159 58.359159 0 0 1 64.297459 60.816386v289.543334a60.918771 60.918771 0 0 1-64.297459 64.143882h-287.802798a60.918771 60.918771 0 0 1-64.297459-64.143882V128.287764a59.946118 59.946118 0 0 1 64.297459-63.017652zM19.517045 216.287232L215.890495 20.374513a69.621452 69.621452 0 0 1 98.186724 0l194.018606 195.912719a69.10953 69.10953 0 0 1 0 97.930764L312.797413 509.158063a69.621452 69.621452 0 0 1-98.186725 0L19.312276 313.142959a69.979798 69.979798 0 0 1 0.204769-96.855727z" fill="currentColor" p-id="10565"></path></svg>