<?xml version="1.0" standalone="no"?><!DOCTYPE svg PUBLIC "-//W3C//DTD SVG 1.1//EN" "http://www.w3.org/Graphics/SVG/1.1/DTD/svg11.dtd"><svg t="1704341519498" class="icon" viewBox="0 0 1024 1024" version="1.1" xmlns="http://www.w3.org/2000/svg" p-id="12817" width="16" height="16" xmlns:xlink="http://www.w3.org/1999/xlink"><path d="M955.576081 603.546524c-67.952077-50.964058-118.916135-182.621207-118.916135-331.266374 0-114.66913-89.187101-220.84425-220.844249-259.067293-106.17512-29.729034-212.35024 0-216.597245 0-131.657149 42.470048-220.84425 144.398163-220.84425 259.067293 0 148.645168-46.717053 280.302317-118.916135 331.266374-33.976038 29.729034-59.458067 76.446086-59.458067 118.916135C0 769.179712 42.470048 811.64976 89.187101 811.64976h840.906951c46.717053 0 89.187101-42.470048 89.187101-89.187101 0-42.470048-25.482029-89.187101-63.705072-118.916135z m-33.976039 114.66913H93.434106c0-12.741014 8.49401-25.482029 21.235024-33.976038 97.68111-63.705072 169.880192-237.832269 169.880192-424.700481C284.549322 170.352034 382.230432 98.152953 509.640576 98.152953s225.091255 72.199082 225.091255 165.633187c0 182.621207 67.952077 356.748404 169.880192 424.70048 4.247005 4.247005 12.741014 12.741014 16.988019 29.729034zM590.333668 892.342851c-8.49401 25.482029-46.717053 38.223043-80.693092 38.223043-33.976038 0-72.199082-12.741014-80.693091-38.223043v-4.247005H335.51338v4.247005c16.988019 84.940096 101.928115 131.657149 174.127196 131.657149 72.199082 0 152.892173-46.717053 174.127197-131.657149v-4.247005l-93.434105 4.247005z" fill="currentColor" p-id="12818"></path></svg>