<?xml version="1.0" standalone="no"?><!DOCTYPE svg PUBLIC "-//W3C//DTD SVG 1.1//EN" "http://www.w3.org/Graphics/SVG/1.1/DTD/svg11.dtd"><svg t="1704851834681" class="icon" viewBox="0 0 1024 1024" version="1.1" xmlns="http://www.w3.org/2000/svg" p-id="9745" width="16" height="16" xmlns:xlink="http://www.w3.org/1999/xlink"><path d="M307.76832 272.10752h411.5456c14.3616 0 26.1376-11.78624 26.1376-26.14784s-11.78112-26.15808-26.1376-26.15808h-411.5456c-14.35648 0-26.15296 11.79648-26.15296 26.15808s11.79648 26.14784 26.15296 26.14784zM212.72064 374.8608h601.63584c14.3616 0 26.1376-11.78624 26.1376-26.14784s-11.78112-26.15808-26.1376-26.15808H212.72064c-14.35648 0-26.15296 11.79648-26.15296 26.15808s11.79648 26.14784 26.15296 26.14784z" fill="#5D5D5D" p-id="9746"></path><path d="M1017.15968 447.2832L905.1136 134.83008a29.36832 29.36832 0 0 0-27.7248-19.6352H149.67808a29.35808 29.35808 0 0 0-27.71968 19.6352L9.92256 452.48c-1.16224 2.88768-1.73568 6.3488-1.73568 9.81504v367.89248c0 16.17408 13.2864 29.46048 29.45536 29.46048h951.79264c16.16384 0 29.45024-13.2864 29.45024-30.03392V457.09824c0-3.46112-0.56832-6.3488-1.72544-9.81504z m-321.05472 292.72576H330.97216c-15.96928 0-29.09184-13.12256-29.09184-29.08672 0-15.9744 13.12256-29.1072 29.09184-29.1072h365.1328c15.9744 0 29.08672 13.12768 29.08672 29.1072 0 15.96928-13.11232 29.08672-29.08672 29.08672z m-22.51776-309.47328c0.01024 0.64 0.0512 1.27488 0.0512 1.91488 0 88.4224-71.68512 160.10752-160.1024 160.10752-88.42752 0-160.10752-71.68512-160.10752-160.10752 0-0.64 0.04096-1.27488 0.0512-1.91488H80.14848l90.32704-255.85664h686.12096l91.79136 255.85664H673.5872z" fill="#5D5D5D" p-id="9747"></path></svg>