<?xml version="1.0" standalone="no"?><!DOCTYPE svg PUBLIC "-//W3C//DTD SVG 1.1//EN" "http://www.w3.org/Graphics/SVG/1.1/DTD/svg11.dtd"><svg t="1704344278585" class="icon" viewBox="0 0 1024 1024" version="1.1" xmlns="http://www.w3.org/2000/svg" p-id="4717" xmlns:xlink="http://www.w3.org/1999/xlink" width="16" height="16"><path d="M39.009524 472.990476l34.133333-399.847619L472.990476 39.009524l512 512-433.980952 433.980952L39.009524 472.990476z m512 380.342857l302.323809-302.323809L438.857143 136.533333l-277.942857 24.380953L136.533333 438.857143l414.476191 414.47619z" p-id="4718"></path><path d="M351.085714 497.371429c-39.009524 0-73.142857-14.628571-102.4-43.885715-53.638095-53.638095-53.638095-146.285714 0-204.8 29.257143-29.257143 63.390476-43.885714 102.4-43.885714s73.142857 14.628571 102.4 43.885714c58.514286 58.514286 58.514286 146.285714 0 204.8-24.380952 29.257143-63.390476 43.885714-102.4 43.885715z m0-199.92381c-14.628571 0-24.380952 4.87619-34.133333 14.628571-9.752381 14.628571-14.628571 24.380952-14.628571 39.009524s4.87619 29.257143 14.628571 39.009524c9.752381 9.752381 24.380952 14.628571 34.133333 14.628572 14.628571 0 29.257143-4.87619 39.009524-14.628572 14.628571-14.628571 19.504762-39.009524 14.628572-58.514286-9.752381-19.504762-29.257143-34.133333-53.638096-34.133333z" p-id="4719"></path></svg>